<svg id="icons_Comments_Normal" data-name="icons / Comments / Normal" xmlns="http://www.w3.org/2000/svg" width="24" height="24" viewBox="0 0 24 24">
  <g id="icons_Comments_Normal-2" data-name="icons / Comments / Normal">
    <rect id="frame_24x24" width="24" height="24" fill="rgba(216,216,216,0)"/>
    <g id="like_1_" data-name="like (1)" transform="translate(4 3)">
      <path id="Path" d="M15.482,11.538a2.153,2.153,0,0,0,.477-1.409,2.207,2.207,0,0,0-.446-1.221,1.943,1.943,0,0,0-.436-2.183,3.7,3.7,0,0,0-2.757-.681,10.445,10.445,0,0,0-1.689.224h0c-.172.032-.354.071-.539.114a6.375,6.375,0,0,1,.429-2.062C11,2.807,10.97,1.65,10.427.877A2.152,2.152,0,0,0,8.68,0a.851.851,0,0,0-.663.312,2.456,2.456,0,0,0-.288,1.693C7.276,3.262,6.005,6.342,4.93,7.2a.372.372,0,0,0-.055.05A3.826,3.826,0,0,0,4.2,8.291a1.381,1.381,0,0,0-.68-.177H1.428A1.454,1.454,0,0,0,0,9.59v5.767a1.454,1.454,0,0,0,1.428,1.476H3.523a1.394,1.394,0,0,0,.824-.27l.807.1a33.46,33.46,0,0,0,4.577.259c.409.032.793.05,1.15.05a7.461,7.461,0,0,0,1.6-.149,2.979,2.979,0,0,0,2.132-1.37,2.236,2.236,0,0,0,.233-1.359,2.3,2.3,0,0,0,.779-1.842A2.467,2.467,0,0,0,15.482,11.538Z" transform="translate(0.023)" fill="#fff" stroke="#335889" stroke-miterlimit="10" stroke-width="1.584"/>
      <path id="Path-2" data-name="Path" d="M.647,8A.63.63,0,0,1,0,7.391V.609A.63.63,0,0,1,.647,0H3.353A.63.63,0,0,1,4,.609V7.387A.63.63,0,0,1,3.353,8H.647Z" transform="translate(0.499 8.471)" fill="#335889"/>
      <path id="Path-3" data-name="Path" d="M11.453,10.172a.489.489,0,0,0-.062.578,1.513,1.513,0,0,1,.158.593,1.434,1.434,0,0,1-.645,1.228.493.493,0,0,0-.158.547,1.292,1.292,0,0,1-.093.916,2.137,2.137,0,0,1-1.518.9,8.755,8.755,0,0,1-2.5.078H6.584a32.8,32.8,0,0,1-4.464-.252l-.35-.043c.021-.1-1.77.106-1.77,0,0,0,.527-4.836.527-6.523,0-.237.773.192.773.192,0-.153.478-.053.437-.192a3,3,0,0,1,.639-1.217c1.542-1.263,3.049-5.526,3.114-5.71a.464.464,0,0,0,.021-.238A2.29,2.29,0,0,1,5.554,0a1.215,1.215,0,0,1,.968.479,3.115,3.115,0,0,1-.041,2.58C5.9,4.866,5.856,5.817,6.313,6.236a.729.729,0,0,0,.748.138c.209-.05.409-.092.6-.124L7.7,6.239c1.054-.238,2.942-.383,3.6.234a1.047,1.047,0,0,1,.117,1.3.486.486,0,0,0,.082.618,1.359,1.359,0,0,1,.381.827A1.338,1.338,0,0,1,11.453,10.172Z" transform="translate(3.173 0.951)" fill="rgba(51,88,137,0.3)"/>
    </g>
  </g>
</svg>
