<svg xmlns="http://www.w3.org/2000/svg" width="24" height="24" viewBox="0 0 24 24">
  <g id="icons_Comments_Normal" data-name="icons / Comments / Normal" opacity="0.503">
    <g id="icons_Comments_Normal-2" data-name="icons / Comments / Normal">
      <rect id="frame_24x24" width="24" height="24" fill="rgba(216,216,216,0)"/>
      <path id="Path" d="M13.762,6.074,9.363,10.7a.753.753,0,0,1-.562.25.743.743,0,0,1-.3-.066A.786.786,0,0,1,8,10.11v-2.1a10.239,10.239,0,0,0-2.8.309,3.258,3.258,0,0,0-1.625.992Q2.25,10.873,2.8,15.527a.377.377,0,0,1-.238.434A.341.341,0,0,1,2.4,16a.383.383,0,0,1-.313-.158A9.46,9.46,0,0,1,0,10.531q0-.789.063-1.453A9.51,9.51,0,0,1,.331,7.612,6.047,6.047,0,0,1,.887,6.179a6.014,6.014,0,0,1,.956-1.255A5.3,5.3,0,0,1,3.269,3.885,8.363,8.363,0,0,1,5.3,3.215,13.091,13.091,0,0,1,8,2.958V.855A.787.787,0,0,1,8.5.079a.688.688,0,0,1,.863.184l4.4,4.628a.855.855,0,0,1,0,1.183Z" transform="translate(5 4)" fill="#fff" stroke="#75838b" stroke-miterlimit="10" stroke-width="1.584"/>
    </g>
  </g>
</svg>
