<?xml version="1.0" encoding="UTF-8"?>
<svg width="32px" height="34px" viewBox="0 0 32 34" version="1.1" xmlns="http://www.w3.org/2000/svg" xmlns:xlink="http://www.w3.org/1999/xlink">
    <!-- Generator: Sketch 55.2 (78181) - https://sketchapp.com -->
    <title>sidebar/icon/tools normal</title>
    <desc>Created with Sketch.</desc>
    <g id="01-Metrics" stroke="none" stroke-width="1" fill="none" fill-rule="evenodd">
        <g id="Fit_Fortis---v7.1-Style" transform="translate(-828.000000, -2725.000000)" fill="#FFFFFF" stroke="#335889">
            <g id="sidebar" transform="translate(787.000000, 2064.000000)">
                <g id="Group-32" transform="translate(24.000000, 168.000000)">
                    <g id="Group-Copy-11" transform="translate(0.000000, 476.000000)">
                        <g id="sidebar/icon/Admin-Tools" transform="translate(16.000000, 16.000000)">
                            <g id="settings-work-tool" transform="translate(3.000000, 3.088235)">
                                <path d="M28.6996979,12.7254673 L28.6997542,12.725984 C28.82485,13.8776889 28.8228064,15.0386345 28.6929173,16.1797583 C28.5962419,17.017869 27.8575079,17.6547481 27.0656503,17.5872491 L26.913584,17.5829183 C26.0001252,17.5829183 25.1382343,18.1708289 24.7828841,19.04359 C24.4008148,19.9807358 24.6400541,21.076407 25.373703,21.7603175 C25.9805613,22.3255857 26.0525423,23.269814 25.5420475,23.9222332 C24.8386153,24.8241052 24.0343307,25.6427339 23.1455652,26.3601372 C22.493865,26.8783942 21.5611949,26.7993127 21.0026862,26.1739605 C20.3903513,25.4815049 19.2686356,25.2171159 18.436277,25.5670793 C17.5502178,25.940529 16.9691439,26.8725872 17.0047501,27.8847937 C17.0316796,28.7121872 16.4300595,29.4296398 15.6101482,29.5227681 C15.0695725,29.5846726 14.5271381,29.6155294 13.9831348,29.6155294 C13.4115009,29.6155294 12.8417666,29.5815287 12.2770462,29.5137171 C11.4474425,29.4153731 10.8445629,28.6774923 10.8923925,27.8417946 C10.9487181,26.8192532 10.3754813,25.8721848 9.47492174,25.4843991 C8.64184247,25.1244622 7.5086805,25.3881876 6.89290561,26.0893059 C6.33260909,26.7248458 5.37894109,26.8022706 4.72795036,26.2622996 C3.86160948,25.544543 3.07386151,24.7244882 2.38981217,23.8276054 C1.89103157,23.1768551 1.96447039,22.2469233 2.55997554,21.6838123 C3.28113888,21.0033196 3.51996221,19.9162399 3.15080003,18.9897515 C2.78606695,18.0760977 1.92233181,17.489374 1.00569912,17.5132095 C0.201729987,17.5132095 -0.610581178,16.9231033 -0.699729366,16.0980606 C-0.824797377,14.9466112 -0.822807857,13.784721 -0.692965096,12.6431173 C-0.596093127,11.8141254 0.0764058581,11.2077797 0.902349708,11.2355495 C1.95580397,11.2355495 2.85656096,10.6596712 3.21519328,9.78063169 C3.59764174,8.8419076 3.35916762,7.74653676 2.6244201,7.06159929 C2.02055246,6.49601229 1.94783727,5.55397986 2.45731168,4.90164755 C3.15653051,4.00343889 3.96217317,3.18370845 4.85158128,2.46539662 C5.50247196,1.94318309 6.44177658,2.02345991 6.99732514,2.65031527 C7.60711173,3.34068195 8.7339728,3.6051787 9.56176904,3.25711611 C10.4487861,2.88311465 11.0295684,1.95124863 10.9949637,0.937795667 C10.9680032,0.11093095 11.5700546,-0.606355837 12.389909,-0.699501799 C13.4967936,-0.825914509 14.6132991,-0.82261106 15.7237107,-0.690405921 C16.5541153,-0.590848318 17.1555665,0.145913803 17.1073185,0.981308893 C17.0510193,2.00280258 17.6241115,2.9509428 18.5202089,3.33897332 C19.357838,3.69874573 20.4918063,3.43494524 21.1040817,2.73692939 C21.6621567,2.10081095 22.6173422,2.0227897 23.2673343,2.55972467 C24.1299341,3.27103705 24.9180604,4.09022163 25.6100043,4.99472332 C26.1092436,5.64607203 26.0366127,6.57769341 25.4400402,7.13907898 C24.7201894,7.81880417 24.4811181,8.90722263 24.8491865,9.83412295 C25.2069164,10.7326729 26.0542599,11.3098699 27.0123494,11.3098699 C27.8116796,11.3098699 28.6101106,11.9056864 28.6996979,12.7254673 Z" id="Shape" stroke-width="1.584"></path>
                                <g id="wrench-solid" transform="translate(14.278175, 18.565991) rotate(-315.000000) translate(-14.278175, -18.565991) translate(4.778175, 8.786579)" stroke-width="1.584">
                                    <path d="M18.5514161,6.19506815 C18.4356289,5.71457203 17.8515238,5.5517461 17.5113988,5.90187506 L13.6676768,9.8586515 L10.1589106,9.2568341 L9.57428853,5.64486551 L13.4180106,1.68808906 C13.7602032,1.33583167 13.5953098,0.735610604 13.1254411,0.615353547 C10.6763347,-0.00934461622 7.97962978,0.663775636 6.06552236,2.63365008 C4.01650216,4.74293758 3.45255639,7.80044665 4.3054533,10.4663221 L1.15510485,13.7093323 C-0.136646281,15.0390774 -0.136646281,17.1951906 1.15510485,18.5249357 C2.44685598,19.8546808 4.54136401,19.8546808 5.83311514,18.5249357 L8.97415926,15.2915035 C11.5648982,16.1806608 14.5293611,15.5937425 16.5918209,13.4706201 C18.5079959,11.4980851 19.1608497,8.71780579 18.5514161,6.19506815 Z" id="Shape" transform="translate(9.479185, 9.956031) rotate(-90.000000) translate(-9.479185, -9.956031) "></path>
                                </g>
                            </g>
                        </g>
                    </g>
                </g>
            </g>
        </g>
    </g>
</svg>