<svg height="512pt" viewBox="-62 0 512 512" width="512pt" xmlns="http://www.w3.org/2000/svg"><path d="m381.28125 304.84375c4.144531 0 7.503906-3.359375 7.503906-7.5v-177.449219c0-7.640625-3.21875-15-8.828125-20.191406l-99.871093-92.390625c-5.300782-4.910156-11.382813-7.3125-18.675782-7.3125-.109375 0-233.902344 0-233.902344 0-15.167968 0-27.50390575 12.339844-27.50390575 27.503906v320.179688c0 .015625-.00390625.027344-.00390625.039062v136.769532c0 6.160156 2.035156 11.855468 5.472656 16.449218 5.019532 6.707032 13.027344 11.058594 22.035156 11.058594h333.769532c15.167968 0 27.507812-12.339844 27.507812-27.503906v-152.8125c0-4.144532-3.359375-7.503906-7.503906-7.503906-4.140625 0-7.5 3.359374-7.5 7.503906v8.539062h-358.777344v-312.71875c0-6.894531 5.609375-12.5 12.503906-12.5 0 0 236.53125.21875 237.769532.621094v71.453125c0 14.136719 11.5 25.636719 25.636718 25.636719h80.59375c1.464844 2.085937 2.273438 4.597656 2.273438 7.179687v177.449219c0 4.140625 3.359375 7.5 7.5 7.5zm-7.503906 50.382812v129.265626c0 6.894531-5.609375 12.503906-12.503906 12.503906h-333.769532c-4.308594 0-8.113281-2.191406-10.363281-5.519532-1.347656-1.992187-2.136719-4.398437-2.136719-6.980468v-129.269532zm-82.863282-257.515624c-5.863281 0-10.632812-4.769532-10.632812-10.632813v-58.886719l74.941406 69.519532zm0 0"/><path d="m121.933594 161.070312c-3.617188-2.019531-8.1875-.726562-10.207032 2.890626-7.816406 14.003906-11.949218 29.929687-11.949218 46.0625 0 52.171874 42.445312 94.621093 94.617187 94.621093 52.175781 0 94.621094-42.449219 94.621094-94.621093 0-52.171876-42.445313-94.621094-94.621094-94.621094-19.988281 0-39.097656 6.160156-55.265625 17.8125-3.359375 2.421875-4.121094 7.109375-1.699218 10.46875 2.421874 3.363281 7.109374 4.125 10.46875 1.703125 13.597656-9.800781 29.675781-14.980469 46.496093-14.980469 43.902344 0 79.617188 35.714844 79.617188 79.617188 0 43.902343-35.714844 79.617187-79.617188 79.617187-43.898437 0-79.617187-35.714844-79.617187-79.617187 0-13.578126 3.476562-26.976563 10.050781-38.746094 2.015625-3.621094.722656-8.1875-2.894531-10.207032zm0 0"/><path d="m178.90625 255.105469c2.855469 0 5.710938-.75 8.316406-2.253907l49.234375-28.425781c5.207031-3.007812 8.316407-8.390625 8.316407-14.402343 0-6.011719-3.109376-11.398438-8.316407-14.402344l-49.234375-28.425782c-5.207031-3.007812-11.425781-3.007812-16.632812 0-5.207032 3.003907-8.316406 8.390626-8.316406 14.402344v56.851563c0 6.011719 3.109374 11.398437 8.316406 14.402343 2.605468 1.503907 5.460937 2.253907 8.316406 2.253907zm-1.628906-73.511719c0-.777344.441406-1.195312.8125-1.410156.210937-.121094.492187-.230469.816406-.230469.25 0 .523438.066406.8125.230469l49.238281 28.425781c.671875.390625.8125.984375.8125 1.410156 0 .429688-.140625 1.023438-.8125 1.410157l-49.238281 28.429687c-.671875.386719-1.257812.210937-1.628906 0-.371094-.214844-.8125-.636719-.8125-1.410156zm0 0"/><path d="m138.777344 435.976562c-1.308594 2.140626-2.972656 2.851563-4.636719 2.851563-1.546875 0-3.207031-.710937-4.277344-2.851563l-15.925781-30.183593v57.753906c0 2.734375-3.089844 4.160156-6.296875 4.160156-3.089844 0-6.300781-1.425781-6.300781-4.160156v-76.414063c0-4.632812 3.089844-6.296874 6.300781-6.296874 4.515625 0 7.011719 1.542968 9.980469 7.128906l16.640625 31.492187 16.875-31.492187c2.96875-5.582032 5.347656-7.128906 9.863281-7.128906 3.328125 0 6.296875 1.664062 6.296875 6.296874v76.414063c0 2.734375-3.089844 4.160156-6.296875 4.160156-3.09375 0-6.300781-1.425781-6.300781-4.160156v-57.042969zm0 0"/><path d="m182.984375 384.875c0-2.140625 1.902344-4.042969 4.871094-4.042969h23.175781c14.617188 0 26.027344 7.011719 26.027344 26.144531v.953126c0 19.015624-11.765625 26.261718-26.738282 26.261718h-14.738281v29.355469c0 2.734375-3.089843 4.160156-6.296875 4.160156-3.089844 0-6.300781-1.425781-6.300781-4.160156zm12.597656 7.128906v32.207032h14.738281c8.792969 0 14.140626-4.992188 14.140626-15.449219v-1.425781c0-10.457032-5.347657-15.332032-14.140626-15.332032zm0 0"/><path d="m272 448.21875h-29.234375c-2.496094 0-4.398437-1.785156-4.398437-4.636719 0-.832031.238281-1.78125.714843-2.613281l28.757813-56.6875c1.308594-2.496094 3.449218-3.445312 5.46875-3.445312 2.375 0 6.296875 1.898437 6.296875 4.871093 0 .59375-.234375 1.1875-.59375 1.902344l-24.480469 48.84375h17.46875v-16.402344c0-2.96875 3.089844-4.15625 6.300781-4.15625 3.089844 0 6.296875 1.1875 6.296875 4.15625v16.402344h5.824219c2.851563 0 4.277344 2.96875 4.277344 5.941406 0 2.851563-2.019531 5.824219-4.277344 5.824219h-5.824219v15.328125c0 2.734375-3.207031 4.160156-6.296875 4.160156-3.210937 0-6.300781-1.425781-6.300781-4.160156zm0 0"/></svg>