<svg xmlns="http://www.w3.org/2000/svg" xmlns:xlink="http://www.w3.org/1999/xlink" width="70" height="70" viewBox="0 0 70 70">
  <defs>
    <clipPath id="clip-path">
      <rect id="button_dark" data-name="button/dark" width="70" height="70" rx="35" fill="#f4f6f7"/>
    </clipPath>
  </defs>
  <g id="Avatar_Female_Child" data-name="Avatar / Female / Child" clip-path="url(#clip-path)">
    <circle id="Oval" cx="5.5" cy="5.5" r="5.5" transform="translate(14 21)" fill="#c3ccd1"/>
    <circle id="Oval-2" data-name="Oval" cx="5.5" cy="5.5" r="5.5" transform="translate(45 21)" fill="#c3ccd1"/>
    <g id="Group_3" data-name="Group 3" transform="translate(15 19)">
      <g id="Group_2" data-name="Group 2" transform="translate(7)">
        <ellipse id="Oval-3" data-name="Oval" cx="12.796" cy="12.485" rx="12.796" ry="12.485" transform="translate(0 0.178)" fill="#c3ccd1"/>
        <ellipse id="Oval-4" data-name="Oval" cx="11.753" cy="11.466" rx="11.753" ry="11.466" transform="translate(1.044 3.687)" fill="#fff"/>
        <path id="Path" d="M-.255,8.019A6.689,6.689,0,0,0-2.023,5.311C-4.427,3.068-8.364,2.574-10.386,0a1.439,1.439,0,0,0-.132,1.213,1.532,1.532,0,0,0,.857.907c-1.933,0-4.178-.174-5.275-1.682a3.314,3.314,0,0,0,.589,3.64c-1.715.073-3.536,1.183-3.654,2.8a3.213,3.213,0,0,0,1.579,2.737,9.065,9.065,0,0,0,3.188,1.122C-9.926,11.446,1.873,14.3-.255,8.019Z" transform="translate(4.796 13.921) rotate(-180)" fill="#c3ccd1"/>
      </g>
      <path id="Path-2" data-name="Path" d="M38,21.871C35.938,10.7,33,0,28.072,0H9C5.737,0,2.314,10.605,0,20.886,9.418,27.47,8.666,31,20.2,31,31.146,31.016,28.859,27.841,38,21.871Z" transform="translate(0 29)" fill="#e1e6e9"/>
      <path id="Path-3" data-name="Path" d="M.954,0H9.046A.919.919,0,0,1,10,.879V7.392A4.816,4.816,0,0,1,5,12H5A4.816,4.816,0,0,1,0,7.392V.9A.919.919,0,0,1,.954.019Z" transform="translate(14.23 20.415)" fill="#fff"/>
    </g>
  </g>
</svg>
