<svg xmlns="http://www.w3.org/2000/svg" xmlns:xlink="http://www.w3.org/1999/xlink" width="70" height="70" viewBox="0 0 70 70">
  <defs>
    <clipPath id="clip-path">
      <rect id="button_dark" data-name="button/dark" width="70" height="70" rx="35" fill="#f4f6f7"/>
    </clipPath>
  </defs>
  <g id="Avatar_Male" data-name="Avatar / Male" clip-path="url(#clip-path)">
    <g id="Group_3" data-name="Group 3" transform="translate(3 7)">
      <g id="Group_2" data-name="Group 2" transform="translate(16)">
        <ellipse id="Oval" cx="15.749" cy="15.706" rx="15.749" ry="15.706" transform="translate(0 5.256)" fill="#c3ccd1"/>
        <ellipse id="Oval-2" data-name="Oval" cx="14.465" cy="14.425" rx="14.465" ry="14.425" transform="translate(1.285 9.67)" fill="#fff"/>
        <path id="Path" d="M0,3.662S6.095,16.006,23.3,8.835L19.289,2.569,12.189,0Z" transform="translate(5.445 7.31)" opacity="0.1"/>
        <path id="Path-2" data-name="Path" d="M0,3.634S6.095,15.978,23.3,8.807L19.289,2.541,12.189,0Z" transform="translate(5.445 7.157)" fill="#c3ccd1"/>
        <path id="Path-3" data-name="Path" d="M.3,9.956A8.351,8.351,0,0,1,2.4,6.593C5.244,3.808,9.908,3.2,12.3,0a1.864,1.864,0,0,1-.859,2.632c2.29,0,4.95-.216,6.248-2.089a4.266,4.266,0,0,1-.7,4.518c2.032.091,4.189,1.469,4.328,3.481a4.028,4.028,0,0,1-1.871,3.4,10.42,10.42,0,0,1-3.777,1.392C11.758,14.209-2.218,17.753.3,9.956Z" transform="translate(5.088 0)" fill="#c3ccd1"/>
      </g>
      <path id="Path-4" data-name="Path" d="M32.2,21A56.2,56.2,0,0,0,63,11.871C60.938.7,53.072,0,53.072,0H9.737S2.314.605,0,10.886A56.181,56.181,0,0,0,32.2,21Z" transform="translate(0 41)" fill="#e1e6e9"/>
      <path id="Path-5" data-name="Path" d="M1.38,0h11.7a1.38,1.38,0,0,1,1.38,1.38V11.6a7.23,7.23,0,0,1-7.23,7.23h0A7.23,7.23,0,0,1,0,11.6V1.41A1.38,1.38,0,0,1,1.38.03Z" transform="translate(24 29)" fill="#fff"/>
    </g>
  </g>
</svg>
