<svg xmlns="http://www.w3.org/2000/svg" xmlns:xlink="http://www.w3.org/1999/xlink" width="70" height="70" viewBox="0 0 70 70">
  <defs>
    <clipPath id="clip-path">
      <rect id="button_dark" data-name="button/dark" width="70" height="70" rx="35" fill="#f4f6f7"/>
    </clipPath>
  </defs>
  <g id="Avatar_Male_Child" data-name="Avatar / Male / Child" clip-path="url(#clip-path)">
    <g id="Group_3" data-name="Group 3" transform="translate(15 15)">
      <g id="Group_2" data-name="Group 2" transform="translate(7)">
        <ellipse id="Oval" cx="12.796" cy="12.485" rx="12.796" ry="12.485" transform="translate(0 4.178)" fill="#c3ccd1"/>
        <ellipse id="Oval-2" data-name="Oval" cx="11.753" cy="11.466" rx="11.753" ry="11.466" transform="translate(1.044 7.687)" fill="#fff"/>
        <path id="Path" d="M0,2.911s4.952,9.812,18.928,4.112L15.672,2.042,9.9,0Z" transform="translate(4.424 5.811)" opacity="0.1"/>
        <path id="Path-2" data-name="Path" d="M0,2.889S4.952,12.7,18.928,7L15.672,2.02,9.9,0Z" transform="translate(4.424 5.689)" fill="#c3ccd1"/>
        <path id="Path-3" data-name="Path" d="M.245,7.914a6.618,6.618,0,0,1,1.7-2.673C4.261,3.027,8.05,2.54,10,0a1.451,1.451,0,0,1,.127,1.2,1.5,1.5,0,0,1-.825.895c1.86,0,4.022-.172,5.077-1.66a3.333,3.333,0,0,1-.567,3.592c1.651.072,3.4,1.168,3.517,2.767a3.186,3.186,0,0,1-1.52,2.7A8.585,8.585,0,0,1,12.735,10.6C9.553,11.295-1.8,14.111.245,7.914Z" transform="translate(4.134 0)" fill="#c3ccd1"/>
      </g>
      <path id="Path-4" data-name="Path" d="M38,21.871C35.938,10.7,33,0,28.072,0H9C5.737,0,2.314,10.605,0,20.886,9.418,27.47,8.666,31,20.2,31,31.146,31.016,28.859,27.841,38,21.871Z" transform="translate(0 33)" fill="#e1e6e9"/>
      <path id="Path-5" data-name="Path" d="M.954,0H9.046A.919.919,0,0,1,10,.879V7.392A4.816,4.816,0,0,1,5,12H5A4.816,4.816,0,0,1,0,7.392V.9A.919.919,0,0,1,.954.019Z" transform="translate(14.23 24.415)" fill="#fff"/>
    </g>
  </g>
</svg>
