<svg xmlns="http://www.w3.org/2000/svg" xmlns:xlink="http://www.w3.org/1999/xlink" width="70" height="70" viewBox="0 0 70 70">
  <defs>
    <clipPath id="clip-path">
      <rect id="button_dark" data-name="button/dark" width="70" height="70" rx="35" fill="#f4f6f7"/>
    </clipPath>
  </defs>
  <g id="avatar_Female" clip-path="url(#clip-path)">
    <g id="undraw_palette_110c_2" data-name="undraw_palette_110c 2" transform="translate(-12.07 5.36)">
      <g id="undraw_palette_110c">
        <ellipse id="Oval" cx="40.302" cy="8.449" rx="40.302" ry="8.449" transform="translate(8.061 195.29)" fill="#f8f8f8"/>
        <path id="Combined_Shape" data-name="Combined Shape" d="M.477,20.614c-1.566-1.276,1.223-5.4,1.223-5.4a18.568,18.568,0,0,1,1.695-.981L4.734,10.7a7.275,7.275,0,0,1,0-3.435C5.224,5.742,5.322,0,5.322,0l4.8,1.767s.93,5.4.93,6.037c0,.462-.821,4.344-1.274,6.453a3.089,3.089,0,0,1,.637.958,10.13,10.13,0,0,1,0,3.337c-.293,2.012-1.174,3.092-3.425,4.073a3.556,3.556,0,0,1-1.438.291C3.669,22.917,1.719,21.626.477,20.614Zm38.8,2.012c-2.251-.981-3.132-2.061-3.425-4.073a10.13,10.13,0,0,1,0-3.337,3.081,3.081,0,0,1,.638-.958C36.04,12.149,35.22,8.266,35.22,7.8c0-.638.93-6.037.93-6.037L40.945,0s.1,5.742.587,7.264a7.262,7.262,0,0,1,0,3.435l1.339,3.535a18.18,18.18,0,0,1,1.695.981s2.789,4.122,1.223,5.4c-1.242,1.012-3.193,2.3-5.07,2.3A3.561,3.561,0,0,1,39.281,22.626Z" transform="translate(22.588 183.971)" fill="#c3ccd1"/>
        <path id="Path" d="M0,3.436s4.8,6.626,5.383,8.736,4.257,1.914,4.013,0S2.74,0,2.74,0Z" transform="translate(26.246 72.361)" fill="#c3ccd1"/>
        <path id="Path-2" data-name="Path" d="M5.318,0S-1.434,11.485.278,12.761,8.5,2.749,8.5,2.749Z" transform="translate(59.683 73.637)" fill="#c3ccd1"/>
        <path id="Path-3" data-name="Path" d="M34.4.492H23.244c-2.055,0-8.808.54-9.885,0S8.27,0,8.27,0,.1,18.75,2.3,33.72s-4.649,66.75-1.419,68.32S7,105.574,9.787,105.672s7.976-1.129,8.563-1.963,3.474-73.572,3.474-73.572,1.028,71.756,2.936,73.376,7.389,2.7,10.814,2.16,6.949-2.454,7.634-3.73-2.4-37.3-2.4-37.3S45.558,9.327,37.728,2.406Z" transform="translate(24.288 82.127)" fill="#e1e6e9"/>
        <path id="Path-4" data-name="Path" d="M3.829.552S6.276,8.6,1.432,10.908s4.159,21.1,4.159,21.1S18.167,15.865,18.167,12.331l-2.1-2.11s-4.11-6.92-2.838-9.08S3.829.552,3.829.552Z" transform="translate(38.467 25.085)" fill="#ffb9b9"/>
        <path id="Path-5" data-name="Path" d="M3.829.552S6.276,8.6,1.432,10.908s4.159,21.1,4.159,21.1S18.167,15.865,18.167,12.331l-2.1-2.11s-4.11-6.92-2.838-9.08S3.829.552,3.829.552Z" transform="translate(38.467 25.085)" fill="#fff"/>
        <path id="Path-6" data-name="Path" d="M22.314,18.371s-2.936-7.706-2.593-10.6S19.249.139,17.992,0,3.817,4.088,2.5,4.972,0,23.819,0,23.819l5.774,13.35S6.263,48.114,9,48.6s28.626,1.865,29.458.933,9.346-26.405,9.346-26.405L49.716,8.211s-2.4-2.994-4.942-3.681S34.009.9,33.079.8s-3.866.442-4.11,1.325S22.314,18.371,22.314,18.371Z" transform="translate(23.555 34.702)" fill="#e1e6e9"/>
        <ellipse id="Oval-2" data-name="Oval" cx="10.031" cy="10.062" rx="10.031" ry="10.062" transform="translate(37.525 10.642)" fill="#f4f6f7"/>
        <path id="Path-7" data-name="Path" d="M27.929,1.872a5.627,5.627,0,0,0-7.867-.5c-.58.543-1.037,1.211-1.642,1.725a7.727,7.727,0,0,1-1.938,1.119A56.217,56.217,0,0,0,9.613,7.24c-2.139,1.3-4.014,3.369-4.279,5.867-.14,1.321.177,2.671-.064,3.977-.378,2.047-2.017,3.575-3.39,5.137C.576,23.7-.6,25.818.336,27.56c.794,1.482,2.738,1.922,3.831,3.2,1.262,1.473,1.1,3.7.476,5.542S3,39.867,2.744,41.792c-.423,3.169,1.313,6.274,3.573,8.528A8.987,8.987,0,0,0,9.938,52.7a6.262,6.262,0,0,0,6.044-1.534,6.972,6.972,0,0,0,1.928-6.006,13.783,13.783,0,0,1-.552-3.556c.26-2.462,2.937-4.015,3.572-6.407.649-2.448-.989-4.832-1.953-7.173a25.2,25.2,0,0,1-1.416-9.417c-.016-1.828.171-3.968,1.707-4.952A7.276,7.276,0,0,1,22.737,13a25.071,25.071,0,0,1,4.145-.322A3.553,3.553,0,0,1,30.1,14.91c.42,1.5-.642,3.025-.632,4.585,0,.765.27,1.51.274,2.274.014,2.221-2.038,3.808-3.188,5.7a7.761,7.761,0,0,0,.661,8.756c1.172,1.4,2.939,2.55,3.142,4.369a8.5,8.5,0,0,1-.572,3,3.052,3.052,0,0,0,.42,2.91,3.19,3.19,0,0,0,1.9.75A14.8,14.8,0,0,0,37.421,47a2.525,2.525,0,0,0,1.221-.553c.865-.84.324-2.33.723-3.469a3.688,3.688,0,0,1,2.743-1.992,8.736,8.736,0,0,0,3.3-1.18,4.2,4.2,0,0,0,1.426-3.506,9.4,9.4,0,0,0-1.149-3.731,1.213,1.213,0,0,1-.191-.72c.114-.675,1.075-.617,1.758-.625,1.8-.022,3.185-1.874,3.235-3.681a7.665,7.665,0,0,0-2.056-4.889c-1.146-1.4-2.509-2.615-3.514-4.116-1.718-2.566-2.315-5.839-4.4-8.113a7.936,7.936,0,0,0-3.754-2.251c-1.107-.3-2.768.076-3.631-.715-.337-.309-.481-.807-.81-1.135a13.093,13.093,0,0,0-1.87-1.122C29.292,4.378,28.811,2.94,27.929,1.872Z" transform="translate(23.083 0.232)" fill="#c3ccd1"/>
        <path id="Path-8" data-name="Path" d="M27.789.393,25.93,0S2.833,18.307,1.708,20.663s-4.159,4.466,2.251,8.295S26.175,38.97,26.175,38.97l3.67-6.528L11.886,23.166s4.159-5.89,12.821-4.565Z" transform="translate(0.121 39.673)" fill="#e1e6e9"/>
        <path id="Path-9" data-name="Path" d="M7.487,0,9.1.736s24.32,17.62,21.433,22.037S4.159,37.694,4.159,37.694L0,31.117.877,30.7c3.5-1.679,16.276-7.858,15.516-8.367-.881-.589-8.27-7.166-10.325-7.411S7.487,0,7.487,0Z" transform="translate(64.17 42.177)" fill="#e1e6e9"/>
      </g>
    </g>
  </g>
</svg>
