<?xml version="1.0" encoding="UTF-8"?>
<svg width="24px" height="24px" viewBox="0 0 24 24" version="1.1" xmlns="http://www.w3.org/2000/svg" xmlns:xlink="http://www.w3.org/1999/xlink">
    <!-- Generator: sketchtool 53 (72520) - https://sketchapp.com -->
    <title>8FB9838F-AE5F-4B31-9A8F-B55BFDDEBAA1</title>
    <desc>Created with sketchtool.</desc>
    <g id="02-Symptom-Checker" stroke="none" stroke-width="1" fill="none" fill-rule="evenodd">
        <g id="2.5-Symptom-Checker---details" transform="translate(-1459.000000, -304.000000)">
            <g id="Details" transform="translate(1435.000000, 0.000000)">
                <g id="icon/not-called" transform="translate(24.000000, 304.000000)">
                    <g id="icon/help" stroke-width="1" fill-rule="evenodd" fill="#F4F6F7">
                        <rect id="shape" x="0" y="0" width="24" height="24" rx="12"></rect>
                    </g>
                    <path d="M8,8.5901418 C8.03403415,7.5192384 8.39847771,6.65316558 9.09334162,5.99189737 C9.78820554,5.33062915 10.7510739,5 11.9819757,5 C13.1391368,5 14.07648,5.3101477 14.7940334,5.9304524 C15.5115867,6.5507571 15.870358,7.34953371 15.870358,8.32680621 C15.870358,9.5849714 15.269097,10.5827107 14.066557,11.320054 C13.5106659,11.659466 13.1334597,11.9681508 12.9349272,12.2461175 C12.7363946,12.5240842 12.6371298,12.8795837 12.6371298,13.3126266 L12.6371298,13.8129642 L10.663159,13.8129642 L10.6546505,13.2160702 C10.614944,12.5665059 10.7212991,12.0252104 10.973719,11.5921675 C11.226139,11.1591246 11.6501414,10.7611992 12.2457391,10.3983795 C12.7789408,10.0648194 13.1476385,9.75613466 13.3518434,9.472316 C13.5560483,9.18849734 13.6581493,8.83299786 13.6581493,8.40580689 C13.6581493,7.94350433 13.4936533,7.56606043 13.1646565,7.27346388 C12.8356598,6.98086732 12.404567,6.83457124 11.8713653,6.83457124 C11.3268189,6.83457124 10.8872177,6.99257101 10.5525485,7.30857529 C10.2178794,7.62457957 10.0335305,8.05176413 9.99949636,8.5901418 L8,8.5901418 Z M11.7437379,18 C11.318311,18 10.9765565,17.8727224 10.7184642,17.6181634 C10.4603719,17.3636044 10.3313277,17.0256604 10.3313277,16.6043214 C10.3313277,16.1771304 10.4603719,15.8362606 10.7184642,15.5817016 C10.9765565,15.3271425 11.318311,15.199865 11.7437379,15.199865 C12.1748371,15.199865 12.5180096,15.3271425 12.7732658,15.5817016 C13.0285219,15.8362606 13.1561481,16.1771304 13.1561481,16.6043214 C13.1561481,17.0256604 13.0285219,17.3636044 12.7732658,17.6181634 C12.5180096,17.8727224 12.1748371,18 11.7437379,18 Z" id="?" fill="#5A84BF" fill-rule="nonzero"></path>
                </g>
            </g>
        </g>
    </g>
</svg>