<?xml version="1.0" encoding="UTF-8"?>
<svg width="34px" height="34px" viewBox="0 0 34 34" version="1.1" xmlns="http://www.w3.org/2000/svg" xmlns:xlink="http://www.w3.org/1999/xlink">
    <!-- Generator: Sketch 55.2 (78181) - https://sketchapp.com -->
    <title>sidebar/icon/devices normal</title>
    <desc>Created with Sketch.</desc>
    <g id="01-Metrics" stroke="none" stroke-width="1" fill="none" fill-rule="evenodd">
        <g id="Fit_Fortis---v7.1-Style" transform="translate(-827.000000, -2452.000000)">
            <g id="sidebar" transform="translate(787.000000, 2064.000000)">
                <g id="Group-32" transform="translate(24.000000, 168.000000)">
                    <g id="Group-Copy-4" transform="translate(0.000000, 204.000000)">
                        <g id="sidebar/icon/devices-v2" transform="translate(16.000000, 16.000000)">
                            <g id="sidebar/icon/devices-normal">
                                <rect id="Rectangle" fill-opacity="0" fill="#D8D8D8" x="0" y="0" width="34" height="34"></rect>
                                <g id="Group" transform="translate(1.000000, 1.000000)">
                                    <rect id="Rectangle" stroke="#335889" stroke-width="1.584" fill="#FFFFFF" x="0" y="0" width="18" height="32" rx="4"></rect>
                                    <polyline id="Path-2" stroke="#335889" stroke-width="1.584" stroke-linecap="round" stroke-linejoin="round" points="3.70588235 18.0439798 7.65948072 18.0439798 9 13.0058157 10.9181215 19.4375 13 15 14.3602021 18.0439798 17.8235294 18.0439798"></polyline>
                                    <circle id="Oval" fill="#335889" fill-rule="nonzero" cx="9" cy="26" r="2"></circle>
                                    <path d="M5,0 L13,0 L13,1 C13,2.1045695 12.1045695,3 11,3 L7,3 C5.8954305,3 5,2.1045695 5,1 L5,0 Z" id="Rectangle" fill="#335889"></path>
                                </g>
                                <g id="Group-18" transform="translate(17.000000, 9.000000)" stroke="#335889" stroke-width="1.584">
                                    <g id="Group-17">
                                        <path d="M6.41059396,0 L9.11828423,0 C10.2228537,-2.02906125e-16 11.1182842,0.8954305 11.1182842,2 C11.1182842,2.05611831 11.1159223,2.11221176 11.1112047,2.16813143 L10.4243335,10.3098549 C10.415966,10.409038 10.4150143,10.5087073 10.4214864,10.6080321 L11.1553222,21.8699542 C11.2271445,22.9721862 10.3918324,23.9239452 9.28960043,23.9957675 C9.2463092,23.9985884 9.20293766,24 9.15955463,24 L6.37017154,24 C5.26560204,24 4.37017154,23.1045695 4.37017154,22 C4.37017154,21.956519 4.37158949,21.9130495 4.37442313,21.8696609 L5.10790985,10.638535 C5.11439229,10.5392761 5.11346072,10.4396718 5.1051229,10.3405515 L4.4176325,2.16764437 C4.32504507,1.06696215 5.14226737,0.099625972 6.24294959,0.00703854385 C6.29870798,0.00234824731 6.35463865,1.02788242e-17 6.41059396,0 Z" id="Rectangle-Copy-4" fill="#FFFFFF"></path>
                                        <rect id="Rectangle-Copy-7" fill="#FFFFFF" x="2.17603713e-13" y="4.4375" width="15.5294118" height="15.125" rx="4"></rect>
                                        <g id="favorite-heart-button" transform="translate(0.705882, 11.687500)" stroke-linecap="round" stroke-linejoin="round">
                                            <polyline id="Path-2" points="0 1.3564798 3.95359837 1.3564798 5.26563372 0 7.21223911 2.75 8.85329502 0.382194717 9.90031899 1.3564798 14.1176471 1.3564798"></polyline>
                                        </g>
                                    </g>
                                </g>
                            </g>
                        </g>
                    </g>
                </g>
            </g>
        </g>
    </g>
</svg>