<svg xmlns="http://www.w3.org/2000/svg" xmlns:xlink="http://www.w3.org/1999/xlink" width="70" height="70" viewBox="0 0 70 70">
  <defs>
    <clipPath id="clip-path">
      <rect id="button_dark" data-name="button/dark" width="70" height="70" rx="35" fill="#f4f6f7"/>
    </clipPath>
  </defs>
  <g id="Avatar_Female_Toddler" data-name="Avatar / Female / Toddler" clip-path="url(#clip-path)">
    <g id="Group_2" data-name="Group 2" transform="translate(8 30)">
      <path id="Path_3" data-name="Path 3" d="M33.807,0,26.461,1.741S16.667-1.044,15.618,3.482,12,11,16,16c-2-2-9.127-4.859-11.576-3.118S-.823,18.1.227,19.5s6.3-1.741,6.3-1.741S14.852,22.741,18,21s3.564-4.289,4.613-7.074S29,13,32,12a7.638,7.638,0,0,0,2,5c.895.895,6.222,4.418,7.5,4.586,2.179.285,3.5.4,3.5-.7C45,19.148,43.049,17.3,42,18s-3-3-5-4c1-4,0-6,0-7s3.453-2.822,3.453-2.822Z" fill="#c3ccd1"/>
      <path id="Path_4" data-name="Path 4" d="M11.236.812c-4.1-1.484-8-1-10,2a7.524,7.524,0,0,0-1,6s1-6,6-5,3,9,3,9,3.852,1.478,4.706-.066S15.331,2.3,11.236.812Z" transform="translate(13.764 0.188)" fill="#e1e6e9"/>
    </g>
    <circle id="Oval" cx="10" cy="10" r="10" transform="translate(39 16)" fill="#fff"/>
    <g id="Group" transform="matrix(0.966, -0.259, 0.259, 0.966, 39, 15.4)">
      <path id="Rectangle" d="M0,4A3.6,3.6,0,0,1,4.831.619L8.5,1.954,12.169.619A3.6,3.6,0,0,1,17,4h0a3.093,3.093,0,0,1-3.888,2.723L8.5,5.046,4.831,6.381A3.6,3.6,0,0,1,0,3Z" fill="#c3ccd1"/>
      <rect id="Rectangle-2" data-name="Rectangle" width="4.857" height="4.667" rx="2.333" transform="translate(6.071 1.443)" fill="#f4f6f7" stroke="#c3ccd1" stroke-miterlimit="10" stroke-width="1.2"/>
    </g>
  </g>
</svg>
