<?xml version="1.0" encoding="UTF-8"?>
<svg width="32px" height="29px" viewBox="0 0 32 29" version="1.1" xmlns="http://www.w3.org/2000/svg" xmlns:xlink="http://www.w3.org/1999/xlink">
    <!-- Generator: Sketch 55.2 (78181) - https://sketchapp.com -->
    <title>sidebar/icon/home normal</title>
    <desc>Created with Sketch.</desc>
    <g id="01-Metrics" stroke="none" stroke-width="1" fill="none" fill-rule="evenodd">
        <g id="Fit_Fortis---v7.1-Style" transform="translate(-828.000000, -2250.000000)">
            <g id="sidebar" transform="translate(787.000000, 2064.000000)">
                <g id="Group-32" transform="translate(24.000000, 168.000000)">
                    <g id="Group">
                        <g id="sidebar/icon/home-normal" transform="translate(16.000000, 16.000000)">
                            <g>
                                <rect id="Rectangle" fill-opacity="0" fill="#D8D8D8" x="0" y="0" width="34" height="34"></rect>
                                <g id="home-icon-silhouette" transform="translate(2.000000, 3.000000)" fill="#FFFFFF" stroke="#335889" stroke-width="1.584">
                                    <path d="M25.8117339,13.8493008 L25.8117339,23.8601212 C25.8117339,25.5723636 24.4261694,26.9606667 22.7174395,26.9606667 L17.7725806,26.9606667 L12.1899798,26.9606667 L7.24518145,26.9606667 C5.53639113,26.9606667 4.15082661,25.5723636 4.15082661,23.8600606 L4.15082661,13.8501189 L2.9325,15.0710303 C2.26215726,15.7438182 1.17332661,15.7438182 0.502741935,15.0710303 C-0.167540323,14.3990909 -0.167540323,13.3101818 0.502741935,12.6372121 L11.8572581,1.26 C13.5251613,-0.414242424 16.4317137,-0.417212121 18.1034274,1.2569697 L21.4846573,4.64515152 L21.4846573,2.83054545 C21.4846573,1.88012121 22.2532863,1.10987879 23.2010081,1.10987879 C24.1509073,1.10987879 24.9195363,1.88012121 24.9195363,2.83054545 L24.9195363,8.08690909 L29.4606653,12.6372121 C30.13125,13.3102424 30.13125,14.3991515 29.4607258,15.0710303 C29.1250403,15.4072727 28.6853226,15.5747879 28.2455444,15.5747879 C27.8066734,15.5747879 27.3676815,15.4074545 27.0309677,15.0710303 L25.8117339,13.8493008 Z" id="Combined-Shape"></path>
                                    <path d="M15,16 C16.6568542,16 18,17.3431458 18,19 L18,27 L12,27 L12,19 C12,17.3431458 13.3431458,16 15,16 Z" id="Rectangle"></path>
                                </g>
                            </g>
                        </g>
                    </g>
                </g>
            </g>
        </g>
    </g>
</svg>