<svg xmlns="http://www.w3.org/2000/svg" width="23.584" height="23.584" viewBox="0 0 23.584 23.584">
  <g id="icon_Print" data-name="icon / Print" transform="translate(-0.208 -0.208)">
    <g id="icon_Print-2" data-name="icon / Print">
      <g id="printer" transform="translate(1 1)">
        <rect id="Rectangle" width="16" height="12" rx="3" stroke-width="1.584" fill="#fff" stroke="#335889" stroke-miterlimit="10" transform="translate(17) rotate(90)"/>
        <rect id="Rectangle-2" data-name="Rectangle" width="22" height="12" rx="3" transform="translate(0 4)" fill="#fff" stroke="#335889" stroke-miterlimit="10" stroke-width="1.584"/>
        <path id="Rectangle-3" data-name="Rectangle" d="M0,0H8a2,2,0,0,1,2,2v8a2,2,0,0,1-2,2H0a0,0,0,0,1,0,0V0A0,0,0,0,1,0,0Z" transform="translate(17 12) rotate(90)" fill="#fff" stroke="#335889" stroke-miterlimit="10" stroke-width="1.584"/>
        <rect id="Rectangle-4" data-name="Rectangle" width="8" height="1.58" rx="0.79" transform="translate(7 15)" fill="#335889"/>
        <rect id="Rectangle-5" data-name="Rectangle" width="3" height="1.58" rx="0.79" transform="translate(16 7)" fill="#335889"/>
        <rect id="Rectangle-6" data-name="Rectangle" width="8" height="1.58" rx="0.79" transform="translate(7 18)" fill="#335889"/>
      </g>
    </g>
  </g>
</svg>
