<?xml version="1.0" encoding="UTF-8"?>
<svg width="24px" height="24px" viewBox="0 0 24 24" version="1.1" xmlns="http://www.w3.org/2000/svg" xmlns:xlink="http://www.w3.org/1999/xlink">
    <!-- Generator: sketchtool 53 (72520) - https://sketchapp.com -->
    <title>5582AE25-8E11-4DAD-B7D9-AB23720CFE59</title>
    <desc>Created with sketchtool.</desc>
    <g id="02-Symptom-Checker" stroke="none" stroke-width="1" fill="none" fill-rule="evenodd">
        <g id="2.5-Symptom-Checker---details" transform="translate(-1459.000000, -236.000000)">
            <g id="Details" transform="translate(1435.000000, 0.000000)">
                <g id="icon/don't-make-sense" transform="translate(24.000000, 236.000000)">
                    <g id="icon/help" stroke-width="1" fill="#F4F6F7">
                        <rect id="shape" x="0" y="0" width="24" height="24" rx="12"></rect>
                    </g>
                    <path d="M10.8994949,10.8994949 L10.8994949,6.89949494 C10.8994949,6.34721019 11.3472102,5.89949494 11.8994949,5.89949494 C12.4517797,5.89949494 12.8994949,6.34721019 12.8994949,6.89949494 L12.8994949,10.8994949 L16.8994949,10.8994949 C17.4517797,10.8994949 17.8994949,11.3472102 17.8994949,11.8994949 C17.8994949,12.4517797 17.4517797,12.8994949 16.8994949,12.8994949 L12.8994949,12.8994949 L12.8994949,16.8994949 C12.8994949,17.4517797 12.4517797,17.8994949 11.8994949,17.8994949 C11.3472102,17.8994949 10.8994949,17.4517797 10.8994949,16.8994949 L10.8994949,12.8994949 L6.89949494,12.8994949 C6.34721019,12.8994949 5.89949494,12.4517797 5.89949494,11.8994949 C5.89949494,11.3472102 6.34721019,10.8994949 6.89949494,10.8994949 L10.8994949,10.8994949 Z" id="Combined-Shape" fill="#E54D4C" transform="translate(11.899495, 11.899495) rotate(-315.000000) translate(-11.899495, -11.899495) "></path>
                </g>
            </g>
        </g>
    </g>
</svg>