<svg xmlns="http://www.w3.org/2000/svg" width="23.584" height="23.584" viewBox="0 0 23.584 23.584">
  <g id="icon_share" data-name="icon / share" transform="translate(-0.208 -0.208)">
    <g id="icon_share-2" data-name="icon / share">
      <path id="Path" d="M20.79,1.21A3.973,3.973,0,0,0,17.875,0H4.125A3.974,3.974,0,0,0,1.21,1.21,3.974,3.974,0,0,0,0,4.125v13.75A3.974,3.974,0,0,0,1.21,20.79,3.973,3.973,0,0,0,4.125,22h13.75A4.132,4.132,0,0,0,22,17.875V4.125A3.974,3.974,0,0,0,20.79,1.21Z" transform="translate(1 1)" fill="#fff" stroke="#335889" stroke-miterlimit="10" stroke-width="1.584"/>
      <path id="Path-2" data-name="Path" d="M11.8,5.315,8.025,9.364a.639.639,0,0,1-.482.219.626.626,0,0,1-.257-.058.689.689,0,0,1-.429-.679V7.006a8.606,8.606,0,0,0-2.4.27,2.784,2.784,0,0,0-1.393.868Q1.929,9.514,2.4,13.586a.331.331,0,0,1-.2.379A.288.288,0,0,1,2.057,14a.327.327,0,0,1-.268-.138A8.379,8.379,0,0,1,0,9.215q0-.69.054-1.271a8.478,8.478,0,0,1,.23-1.282A5.358,5.358,0,0,1,.761,5.407a5.254,5.254,0,0,1,.82-1.1A4.547,4.547,0,0,1,2.8,3.4a7.067,7.067,0,0,1,1.741-.587,11,11,0,0,1,2.314-.224V.748A.689.689,0,0,1,7.286.069.582.582,0,0,1,8.025.23L11.8,4.28a.76.76,0,0,1,0,1.035Z" transform="translate(6.75 4.992)" fill="#335889"/>
    </g>
  </g>
</svg>
