<?xml version="1.0" encoding="UTF-8"?>
<svg width="34px" height="35px" viewBox="0 0 34 35" version="1.1" xmlns="http://www.w3.org/2000/svg" xmlns:xlink="http://www.w3.org/1999/xlink">
    <!-- Generator: Sketch 55.2 (78181) - https://sketchapp.com -->
    <title>sidebar/icon/symptom_checker</title>
    <desc>Created with Sketch.</desc>
    <g id="01-Metrics" stroke="none" stroke-width="1" fill="none" fill-rule="evenodd">
        <g id="Fit_Fortis---v7.1-Style" transform="translate(-129.000000, -2657.000000)">
            <g id="sidebar" transform="translate(90.000000, 2064.000000)">
                <g id="Group-Copy-6" transform="translate(24.000000, 576.000000)">
                    <g id="sidebar/icon/Symptom-Checker" transform="translate(16.000000, 16.000000)">
                        <g id="Group" transform="translate(1.281814, 3.088235)">
                            <path d="M27.3001863,18.7688235 L27.3001863,21.6176471 C27.3001863,27.0474112 23.0153858,31.4582353 17.7181863,31.4582353 C12.4209869,31.4582353 8.13618634,27.0474112 8.13618634,21.6176471 L8.13618634,18.7688235 L11.3001863,18.7688235 L11.3001863,21.6176471 C11.3001863,25.2843376 14.1788298,28.2476471 17.7181863,28.2476471 C21.2575429,28.2476471 24.1361863,25.2843376 24.1361863,21.6176471 L24.1361863,18.7688235 L27.3001863,18.7688235 Z" id="Combined-Shape" stroke="#335889" stroke-width="1.58" fill="#FFFFFF"></path>
                            <path d="M5.50818634,0.684540088 L5.50818634,3.89512832 L3.79270538,3.89512832 C3.5573171,3.89512832 3.32535553,3.9564616 3.1178536,4.07394431 C2.42480585,4.46633164 2.16794543,5.37709487 2.55480374,6.10116122 L8.48099008,17.1929538 C8.61249005,17.4390768 8.80802164,17.6403593 9.04403994,17.7739873 C9.72378261,18.1588416 10.5769677,17.9038574 10.9567934,17.1929538 L16.8829797,6.10116122 C17.0009741,5.8803161 17.0630781,5.63142036 17.0630781,5.3780695 C17.0630781,4.55402104 16.4230108,3.89512832 15.6450781,3.89512832 L13.9281863,3.89512832 L13.9281863,0.684540088 L15.6450781,0.684540088 C18.1808538,0.684540088 20.2270781,2.79094745 20.2270781,5.3780695 C20.2270781,6.16547227 20.0337059,6.940455 19.6644719,7.63153476 L13.7382855,18.7233274 C12.5211729,21.0013456 9.72601243,21.8367114 7.50223099,20.5776587 C6.741291,20.1468324 6.11632499,19.503485 5.6994979,18.7233274 L-0.226688433,7.63153476 C-1.43676838,5.36667924 -0.634431691,2.5217926 1.57604466,1.2702729 C2.25441263,0.886196919 3.01707585,0.684540088 3.79270538,0.684540088 L5.50818634,0.684540088 Z" id="Combined-Shape" stroke="#335889" stroke-width="1.58" fill="#FFFFFF"></path>
                            <ellipse id="Oval" stroke="#335889" stroke-width="1.584" fill="#FFFFFF" cx="5.72306439" cy="2.05882353" rx="2.792" ry="2.85082353"></ellipse>
                            <ellipse id="Oval-Copy" stroke="#335889" stroke-width="1.584" fill="#FFFFFF" cx="13.7181863" cy="2.05882353" rx="2.792" ry="2.85082353"></ellipse>
                            <ellipse id="Oval-Copy-2" stroke="#335889" stroke-width="1.584" fill="#FFFFFF" cx="25.7181863" cy="14.4117647" rx="5" ry="5.14705882"></ellipse>
                            <ellipse id="Oval-Copy-2" fill="#335889" cx="25.7181863" cy="14.4117647" rx="2" ry="2.05882353"></ellipse>
                            <path d="M3.72306439,8.58097116 C5.86418909,10.4093433 7.86256307,11.3235294 9.71818634,11.3235294 C11.5738096,11.3235294 13.5738096,10.4093433 15.7181863,8.58097116" id="Path-7" stroke="#335889" stroke-width="1.584"></path>
                        </g>
                    </g>
                </g>
            </g>
        </g>
    </g>
</svg>